<?xml version="1.0" encoding="UTF-8" standalone="no"?>
<svg xmlns:xlink="http://www.w3.org/1999/xlink" height="18.0px" width="12.75px" xmlns="http://www.w3.org/2000/svg">
  <g transform="matrix(1.0, 0.0, 0.0, 1.0, 0.0, 0.0)">
    <use height="18.0" transform="matrix(1.0, 0.0, 0.0, 1.0, 0.0, 0.0)" width="12.75" xlink:href="#shape0"/>
  </g>
  <defs>
    <g id="shape0" transform="matrix(1.0, 0.0, 0.0, 1.0, 0.0, 0.0)">
      <path d="M7.4 5.05 Q7.4 4.3 6.4 4.3 5.35 4.3 5.35 5.05 L5.35 7.7 5.65 8.25 6.4 8.45 7.1 8.25 7.4 7.7 7.4 5.05 M5.65 3.2 L5.65 1.1 3.75 1.5 Q1.9 2.0 1.4 3.05 1.15 3.55 1.15 4.95 L1.2 6.0 4.2 6.0 4.2 5.05 Q4.2 3.7 5.65 3.2 M11.55 6.0 L11.55 4.95 11.35 3.05 Q10.85 2.0 9.0 1.5 L7.1 1.15 7.1 3.25 Q8.55 3.7 8.55 5.05 L8.55 6.0 11.55 6.0 M11.6 1.55 Q12.75 2.4 12.75 3.7 L12.4 11.85 11.9 14.2 11.05 15.65 Q9.2 18.0 6.4 18.0 3.55 18.0 1.7 15.65 L0.85 14.2 Q0.4 12.85 0.4 11.85 L0.0 3.7 Q0.0 2.4 1.15 1.55 2.15 0.85 4.2 0.3 L6.4 0.0 8.55 0.3 Q10.65 0.85 11.6 1.55" fill="#ffffff" fill-rule="evenodd" stroke="none"/>
    </g>
  </defs>
</svg>
