<?xml version="1.0" encoding="UTF-8" standalone="no"?>
<svg xmlns:xlink="http://www.w3.org/1999/xlink" height="13.0px" width="20.0px" xmlns="http://www.w3.org/2000/svg">
  <g transform="matrix(1.0, 0.0, 0.0, 1.0, 0.0, 0.0)">
    <use height="13.0" transform="matrix(1.0, 0.0, 0.0, 1.0, 0.0, 0.0)" width="20.0" xlink:href="#shape0"/>
  </g>
  <defs>
    <g id="shape0" transform="matrix(1.0, 0.0, 0.0, 1.0, 0.0, 0.0)">
      <path d="M5.5 4.05 L5.5 2.15 4.0 2.15 4.0 4.05 2.1 4.05 2.1 5.55 4.0 5.55 4.0 7.45 5.5 7.45 5.5 5.55 7.4 5.55 7.4 4.05 5.5 4.05 M12.75 5.05 Q12.3 5.5 12.3 6.15 12.3 6.8 12.75 7.25 13.2 7.7 13.85 7.7 14.5 7.7 14.95 7.25 15.4 6.8 15.4 6.15 15.4 5.5 14.95 5.05 14.5 4.6 13.85 4.6 13.2 4.6 12.75 5.05 M20.0 4.6 L19.85 5.65 17.4 12.35 Q17.1 13.0 15.65 13.0 L14.4 12.8 Q13.85 12.55 12.7 10.55 L11.6 8.55 8.45 8.55 Q6.5 12.4 5.65 12.8 L4.4 13.0 Q2.95 13.0 2.65 12.35 L0.2 5.9 0.15 5.7 0.0 4.6 Q0.0 2.7 1.35 1.35 2.65 0.0 4.55 0.0 L6.5 0.4 7.65 1.15 12.45 1.15 13.55 0.4 13.55 0.45 Q14.5 0.05 15.4 0.05 17.3 0.05 18.65 1.4 20.0 2.7 20.0 4.6 M16.7 1.7 Q16.05 1.7 15.6 2.15 15.15 2.6 15.15 3.25 15.15 3.9 15.6 4.35 16.05 4.8 16.7 4.8 L17.8 4.35 Q18.25 3.9 18.25 3.25 18.25 2.6 17.8 2.15 17.35 1.7 16.7 1.7" fill="#ffffff" fill-rule="evenodd" stroke="none"/>
    </g>
  </defs>
</svg>
