<?xml version="1.0" encoding="UTF-8" standalone="no"?>
<svg xmlns:xlink="http://www.w3.org/1999/xlink" height="18.0px" width="18.0px" xmlns="http://www.w3.org/2000/svg">
  <g transform="matrix(1.0, 0.0, 0.0, 1.0, 0.0, 0.0)">
    <use height="18.0" transform="matrix(1.0, 0.0, 0.0, 1.0, 0.0, 0.0)" width="18.0" xlink:href="#shape0"/>
  </g>
  <defs>
    <g id="shape0" transform="matrix(1.0, 0.0, 0.0, 1.0, 0.0, 0.0)">
      <path d="M16.15 12.45 L13.55 12.45 12.8 15.95 12.75 16.0 Q15.05 14.75 16.15 12.45 M6.75 16.65 L9.0 16.95 11.2 16.65 11.25 16.6 Q12.0 14.85 12.35 12.45 L5.65 12.45 Q6.0 14.85 6.75 16.6 L6.75 16.65 M5.2 15.95 Q4.7 14.6 4.4 12.45 L1.85 12.45 Q2.95 14.7 5.2 16.0 L5.2 15.95 M4.3 11.15 L4.3 6.9 1.45 6.9 1.25 9.0 1.45 11.15 4.3 11.15 M5.2 2.1 L5.2 2.05 Q2.95 3.35 1.85 5.6 L4.4 5.6 Q4.7 3.45 5.2 2.1 M15.35 2.65 Q18.0 5.3 18.0 9.0 18.0 12.75 15.35 15.4 12.75 18.0 9.0 18.0 5.25 18.0 2.6 15.4 0.0 12.75 0.0 9.0 0.0 5.25 2.6 2.65 5.25 0.0 9.0 0.0 12.75 0.0 15.35 2.65 M13.65 6.9 L13.65 11.15 16.5 11.15 16.7 9.0 16.5 6.9 13.65 6.9 M12.45 11.15 L12.45 6.9 5.55 6.9 5.55 11.15 12.45 11.15 M12.8 2.1 L13.55 5.6 16.15 5.6 Q15.05 3.3 12.75 2.05 L12.8 2.1 M12.35 5.6 Q12.0 3.2 11.25 1.45 L11.25 1.4 11.2 1.4 9.0 1.05 6.75 1.4 6.75 1.45 Q6.0 3.2 5.65 5.6 L12.35 5.6" fill="#ffffff" fill-opacity="0.69411767" fill-rule="evenodd" stroke="none"/>
    </g>
  </defs>
</svg>
