<?xml version="1.0" encoding="UTF-8" standalone="no"?>
<svg xmlns:xlink="http://www.w3.org/1999/xlink" height="64.0px" width="64.0px" xmlns="http://www.w3.org/2000/svg">
  <g transform="matrix(1.0, 0.0, 0.0, 1.0, -0.2, -0.2)">
    <use height="64.0" transform="matrix(1.0, 0.0, 0.0, 1.0, 0.2, 0.2)" width="64.0" xlink:href="#sprite0"/>
    <use height="30.25" transform="matrix(1.0, 0.0, 0.0, 1.0, 8.55, 18.3)" width="46.45" xlink:href="#shape1"/>
  </g>
  <defs>
    <g id="sprite0" transform="matrix(1.0, 0.0, 0.0, 1.0, -0.2, -0.2)">
      <use height="64.0" transform="matrix(1.0, 0.0, 0.0, 1.0, 0.2, 0.2)" width="64.0" xlink:href="#shape0"/>
    </g>
    <g id="shape0" transform="matrix(1.0, 0.0, 0.0, 1.0, -0.2, -0.2)">
      <path d="M59.55 0.2 Q64.2 0.2 64.2 4.85 L64.2 59.55 Q64.2 64.2 59.55 64.2 L4.85 64.2 Q0.2 64.2 0.2 59.55 L0.2 4.85 Q0.2 0.2 4.85 0.2 L59.55 0.2" fill="#f4f4f4" fill-rule="evenodd" stroke="none"/>
    </g>
    <g id="shape1" transform="matrix(1.0, 0.0, 0.0, 1.0, -8.55, -18.3)">
      <path d="M55.0 38.75 L55.0 42.75 16.15 42.75 16.15 38.75 55.0 38.75" fill="#000000" fill-rule="evenodd" stroke="none"/>
      <path d="M8.55 40.8 L22.0 33.05 22.0 48.55 8.55 40.8" fill="#000000" fill-rule="evenodd" stroke="none"/>
      <path d="M55.0 38.9 L51.0 38.9 51.0 18.3 55.0 18.3 55.0 38.9" fill="#000000" fill-rule="evenodd" stroke="none"/>
    </g>
  </defs>
</svg>
