<?xml version="1.0" encoding="UTF-8" standalone="no"?>
<svg xmlns:xlink="http://www.w3.org/1999/xlink" height="64.0px" width="64.0px" xmlns="http://www.w3.org/2000/svg">
  <g transform="matrix(1.0, 0.0, 0.0, 1.0, 0.0, 0.0)">
    <use data-characterId="21" height="64.0" transform="matrix(1.0, 0.0, 0.0, 1.0, 0.0, 0.0)" width="64.0" xlink:href="#shape0"/>
    <use data-characterId="23" height="15.8" transform="matrix(-1.4186, 0.0, 0.0, -1.4196, 43.8872, 63.9683)" width="16.7" xlink:href="#sprite0"/>
    <use data-characterId="23" height="15.8" transform="matrix(1.4186, 0.0, 0.0, 1.4196, 20.1128, -0.0183)" width="16.7" xlink:href="#sprite0"/>
  </g>
  <defs>
    <g id="shape0" transform="matrix(1.0, 0.0, 0.0, 1.0, 0.0, 0.0)">
      <path d="M64.0 0.0 L64.0 64.0 0.0 64.0 0.0 0.0 64.0 0.0" fill="#66cc99" fill-opacity="0.0" fill-rule="evenodd" stroke="none"/>
    </g>
    <g id="sprite0" transform="matrix(1.0, 0.0, 0.0, 1.0, 2.0, 1.95)">
      <use data-characterId="22" height="15.8" transform="matrix(1.0, 0.0, 0.0, 1.0, -2.0, -1.95)" width="16.7" xlink:href="#shape1"/>
    </g>
    <g id="shape1" transform="matrix(1.0, 0.0, 0.0, 1.0, 2.0, 1.95)">
      <path d="M9.3 12.25 L3.1 12.25 1.55 12.45 -2.0 13.85 6.25 -1.95 14.7 13.7 11.1 12.6 9.3 12.25" fill="#000000" fill-rule="evenodd" stroke="none"/>
      <path d="M10.8 10.85 L10.75 10.8 9.1 10.5 3.3 10.5 1.9 10.7 1.85 10.75 1.8 10.75 1.1 11.0 6.25 1.1 11.65 11.1 10.85 10.85 10.8 10.85" fill="#ffffff" fill-rule="evenodd" stroke="none"/>
    </g>
  </defs>
</svg>
