<?xml version="1.0" encoding="UTF-8" standalone="no"?>
<svg xmlns:xlink="http://www.w3.org/1999/xlink" height="64.0px" width="64.0px" xmlns="http://www.w3.org/2000/svg">
  <g transform="matrix(1.0, 0.0, 0.0, 1.0, 0.05, 0.05)">
    <use data-characterId="17" height="64.0" transform="matrix(1.0, 0.0, 0.0, 1.0, -0.05, -0.05)" width="64.0" xlink:href="#sprite0"/>
    <use data-characterId="18" height="8.7" transform="matrix(1.0, 0.0, 0.0, 1.0, 12.0, 42.55)" width="40.4" xlink:href="#shape1"/>
  </g>
  <defs>
    <g id="sprite0" transform="matrix(1.0, 0.0, 0.0, 1.0, -0.2, -0.2)">
      <use data-characterId="16" height="64.0" transform="matrix(1.0, 0.0, 0.0, 1.0, 0.2, 0.2)" width="64.0" xlink:href="#shape0"/>
    </g>
    <g id="shape0" transform="matrix(1.0, 0.0, 0.0, 1.0, -0.2, -0.2)">
      <path d="M59.55 0.2 Q64.2 0.2 64.2 4.85 L64.2 59.55 Q64.2 64.2 59.55 64.2 L4.85 64.2 Q0.2 64.2 0.2 59.55 L0.2 4.85 Q0.2 0.2 4.85 0.2 L59.55 0.2" fill="#f4f4f4" fill-rule="evenodd" stroke="none"/>
    </g>
    <g id="shape1" transform="matrix(1.0, 0.0, 0.0, 1.0, -12.0, -42.55)">
      <path d="M12.0 51.25 L12.0 47.25 52.4 47.25 52.4 51.25 12.0 51.25" fill="#000000" fill-rule="evenodd" stroke="none"/>
      <path d="M12.0 42.55 L16.0 42.55 16.0 50.9 12.0 50.9 12.0 42.55" fill="#000000" fill-rule="evenodd" stroke="none"/>
      <path d="M48.4 42.55 L52.4 42.55 52.4 50.9 48.4 50.9 48.4 42.55" fill="#000000" fill-rule="evenodd" stroke="none"/>
    </g>
  </defs>
</svg>
