<?xml version="1.0" encoding="UTF-8" standalone="no"?>
<svg xmlns:xlink="http://www.w3.org/1999/xlink" height="64.0px" width="64.0px" xmlns="http://www.w3.org/2000/svg">
  <g transform="matrix(1.0, 0.0, 0.0, 1.0, 0.0, 0.0)">
    <use data-characterId="603" height="64.0" transform="matrix(1.0, 0.0, 0.0, 1.0, 0.0, 0.0)" width="64.0" xlink:href="#shape0"/>
  </g>
  <defs>
    <g id="shape0" transform="matrix(1.0, 0.0, 0.0, 1.0, 0.0, 0.0)">
      <path d="M62.35 21.75 L62.45 21.95 64.0 29.9 64.0 30.25 63.45 38.3 63.45 38.5 60.8 46.25 60.7 46.55 56.15 53.2 55.95 53.4 49.75 58.7 49.55 58.8 42.35 62.35 42.05 62.45 34.1 64.0 33.85 64.0 25.8 63.45 25.5 63.45 17.75 60.8 17.55 60.7 10.9 56.15 10.7 55.95 5.4 49.75 5.2 49.55 1.65 42.25 1.55 41.9 0.0 34.0 0.0 33.65 0.55 25.6 0.65 25.4 3.4 17.75 Q3.4 17.55 3.55 17.55 L7.95 10.8 8.15 10.6 14.35 5.3 14.55 5.1 Q18.2 3.35 21.85 1.55 L22.2 1.45 30.1 0.0 30.35 0.0 38.4 0.45 38.75 0.55 46.35 3.3 46.55 3.4 53.3 7.95 53.5 8.15 58.8 14.25 62.35 21.75" fill="#5cb900" fill-rule="evenodd" stroke="none"/>
      <path d="M62.35 21.75 L62.45 21.95 64.0 29.9 64.0 30.25 63.45 38.3 63.45 38.5 60.8 46.25 60.7 46.55 56.15 53.2 55.95 53.4 49.75 58.7 49.55 58.8 42.35 62.35 42.05 62.45 34.1 64.0 33.85 64.0 25.8 63.45 25.5 63.45 17.75 60.8 17.55 60.7 10.9 56.15 10.7 55.95 5.4 49.75 5.2 49.55 1.65 42.25 1.55 41.9 0.0 34.0 0.0 33.65 0.55 25.6 0.65 25.4 3.4 17.75 Q3.4 17.55 3.55 17.55 L7.95 10.8 8.15 10.6 14.35 5.3 14.55 5.1 Q18.2 3.35 21.85 1.55 L22.2 1.45 30.1 0.0 30.35 0.0 38.4 0.45 38.75 0.55 46.35 3.3 46.55 3.4 53.3 7.95 53.5 8.15 58.8 14.25 62.35 21.75" fill="#ffffff" fill-opacity="0.2" fill-rule="evenodd" stroke="none"/>
      <path d="M52.1 9.85 L56.95 15.45 57.05 15.45 60.25 22.55 61.8 30.35 61.25 37.95 58.7 45.35 54.3 51.85 54.3 52.0 48.55 56.85 48.45 56.95 41.5 60.25 33.75 61.8 26.05 61.25 18.65 58.7 12.15 54.3 7.15 48.55 7.15 48.45 3.75 41.5 2.2 33.65 2.75 26.05 5.4 18.65 9.7 12.05 9.8 12.05 15.55 7.1 22.6 3.65 30.35 2.25 38.05 2.65 45.45 5.3 52.1 9.85" fill="#5cb900" fill-rule="evenodd" stroke="none"/>
      <path d="M41.35 47.25 L41.2 47.05 38.05 38.2 26.15 38.2 22.9 47.05 22.7 47.25 22.4 47.35 17.8 47.35 17.5 47.25 17.35 47.0 17.35 46.7 29.5 14.65 29.7 14.4 Q29.8 14.3 29.95 14.3 L34.6 14.3 34.9 14.4 35.1 14.65 47.0 46.7 47.0 47.0 46.8 47.25 46.5 47.35 41.65 47.35 41.35 47.25 M36.2 33.1 L32.2 21.9 28.1 33.1 36.2 33.1" fill="#ffffff" fill-opacity="0.8" fill-rule="evenodd" stroke="none"/>
    </g>
  </defs>
</svg>
