<?xml version="1.0" encoding="UTF-8" standalone="no"?>
<svg xmlns:xlink="http://www.w3.org/1999/xlink" height="64.0px" width="64.0px" xmlns="http://www.w3.org/2000/svg">
  <g transform="matrix(1.0, 0.0, 0.0, 1.0, 0.0, 0.0)">
    <use data-characterId="569" height="64.0" transform="matrix(1.0, 0.0, 0.0, 1.0, 0.0, 0.0)" width="64.0" xlink:href="#shape0"/>
    <use data-characterId="590" height="22.15" transform="matrix(-2.1693, 0.0, 0.0, 2.1458, 61.9153, 8.0729)" width="27.5" xlink:href="#sprite0"/>
    <use data-characterId="595" height="28.6" transform="matrix(1.0, 0.0, 0.0, 1.0, 38.0, 16.9)" width="24.05" xlink:href="#text0"/>
  </g>
  <defs>
    <g id="shape0" transform="matrix(1.0, 0.0, 0.0, 1.0, 0.0, 0.0)">
      <path d="M64.0 64.0 L0.0 64.0 0.0 0.0 64.0 0.0 64.0 64.0" fill="#66cc99" fill-opacity="0.0" fill-rule="evenodd" stroke="none"/>
    </g>
    <g id="sprite0" transform="matrix(1.0, 0.0, 0.0, 1.0, -0.5, -0.5)">
      <use data-characterId="589" height="22.15" transform="matrix(1.0, 0.0, 0.0, 1.0, 0.5, 0.5)" width="27.5" xlink:href="#shape1"/>
    </g>
    <g id="shape1" transform="matrix(1.0, 0.0, 0.0, 1.0, -0.5, -0.5)">
      <path d="M28.0 11.4 L27.95 15.55 27.9 15.55 27.9 18.85 27.85 19.65 27.75 19.65 27.2 20.75 26.15 22.0 24.85 22.65 3.1 22.65 2.2 22.35 1.1 21.3 0.5 20.1 0.5 2.85 1.1 1.75 2.2 0.8 3.1 0.5 16.85 0.55 18.8 0.85 20.15 1.5 22.6 3.4 25.15 6.35 27.4 9.85 27.95 11.4 28.0 11.4" fill="#ffffff" fill-rule="evenodd" stroke="none"/>
    </g>
    <g id="text0" transform="matrix(1.0, 0.0, 0.0, 1.0, -25.0, -8.9)">
      <g transform="matrix(1.0, 0.0, 0.0, 1.0, 0.0, 0.0)">
        <use fill="#000000" height="28.6" transform="matrix(2.4219, 0.0, 0.0, 2.4219, 2.0, 36.0)" width="24.05" xlink:href="#font_Chalet-LondonNineteenSixty_L0"/>
        <use fill="#000000" height="28.6" transform="matrix(2.4219, 0.0, 0.0, 2.4219, 19.8, 36.0)" width="24.05" xlink:href="#font_Chalet-LondonNineteenSixty_B0"/>
      </g>
    </g>
    <g id="font_Chalet-LondonNineteenSixty_L0">
      <path d="M0.95 -8.95 L2.15 -8.95 2.15 -1.1 6.75 -1.1 6.75 0.0 0.95 0.0 0.95 -8.95" fill-rule="evenodd" stroke="none"/>
    </g>
    <g id="font_Chalet-LondonNineteenSixty_B0">
      <path d="M2.15 -4.05 L2.15 -1.1 4.9 -1.1 Q5.65 -1.1 6.05 -1.5 6.5 -1.85 6.5 -2.55 6.5 -4.05 4.9 -4.05 L2.15 -4.05 M2.15 -7.75 L2.15 -5.2 4.9 -5.2 Q5.45 -5.2 5.85 -5.5 6.25 -5.85 6.25 -6.5 6.25 -7.75 4.85 -7.75 L2.15 -7.75 M4.85 -8.95 Q5.45 -8.95 5.95 -8.75 6.4 -8.55 6.75 -8.25 7.1 -7.95 7.25 -7.45 7.45 -7.0 7.45 -6.45 7.45 -5.95 7.2 -5.45 6.95 -4.95 6.45 -4.7 7.1 -4.4 7.4 -3.85 7.7 -3.3 7.7 -2.6 7.7 -1.45 6.95 -0.65 6.55 -0.3 6.05 -0.15 5.5 0.0 4.85 0.0 L0.95 0.0 0.95 -8.95 4.85 -8.95" fill-rule="evenodd" stroke="none"/>
    </g>
  </defs>
</svg>
