<?xml version="1.0" encoding="UTF-8" standalone="no"?>
<svg xmlns:xlink="http://www.w3.org/1999/xlink" height="64.0px" width="64.0px" xmlns="http://www.w3.org/2000/svg">
  <g transform="matrix(1.0, 0.0, 0.0, 1.0, 0.0, 0.0)">
    <use data-characterId="569" height="64.0" transform="matrix(1.0, 0.0, 0.0, 1.0, 0.0, 0.0)" width="64.0" xlink:href="#shape0"/>
    <use data-characterId="582" height="24.85" transform="matrix(-2.1476, 0.0, 0.0, 2.1469, 64.0238, 4.9766)" width="29.8" xlink:href="#sprite0"/>
  </g>
  <defs>
    <g id="shape0" transform="matrix(1.0, 0.0, 0.0, 1.0, 0.0, 0.0)">
      <path d="M64.0 64.0 L0.0 64.0 0.0 0.0 64.0 0.0 64.0 64.0" fill="#66cc99" fill-opacity="0.0" fill-rule="evenodd" stroke="none"/>
    </g>
    <g id="sprite0" transform="matrix(1.0, 0.0, 0.0, 1.0, 0.5, 0.5)">
      <use data-characterId="581" height="24.85" transform="matrix(1.0, 0.0, 0.0, 1.0, -0.5, -0.5)" width="29.8" xlink:href="#shape1"/>
    </g>
    <g id="shape1" transform="matrix(1.0, 0.0, 0.0, 1.0, 0.5, 0.5)">
      <path d="M18.85 -0.5 L18.95 -0.5 21.6 0.1 21.75 0.15 24.2 1.4 24.3 1.5 26.35 3.5 26.45 3.6 28.05 6.15 28.1 6.25 29.0 9.2 29.0 9.3 29.3 12.35 29.3 12.5 28.8 15.65 28.8 15.75 27.7 18.55 27.6 18.65 25.85 21.05 25.8 21.15 23.6 23.0 23.45 23.1 20.9 24.1 20.8 24.1 18.95 24.35 18.85 24.35 9.95 24.35 9.85 24.35 7.2 23.75 7.1 23.7 4.65 22.45 4.5 22.35 2.45 20.35 2.4 20.3 0.8 17.75 0.75 17.6 -0.15 14.65 -0.2 14.55 -0.5 11.5 -0.5 11.4 0.0 8.25 0.05 8.15 1.15 5.35 1.2 5.2 2.95 2.8 3.05 2.75 5.25 0.9 Q5.3 0.8 5.4 0.8 L7.95 -0.2 8.05 -0.25 9.9 -0.5 18.85 -0.5" fill="#ffffff" fill-rule="evenodd" stroke="none"/>
      <path d="M23.7 2.3 L25.65 4.2 27.15 6.6 28.0 9.4 28.3 12.4 27.8 15.45 26.75 18.15 25.1 20.45 25.05 20.45 23.05 22.15 20.6 23.1 18.8 23.35 9.95 23.35 7.55 22.8 5.15 21.6 3.25 19.75 1.65 17.2 0.8 14.45 0.5 11.5 1.0 8.45 2.05 5.75 3.75 3.45 3.75 3.4 5.8 1.7 8.25 0.75 10.0 0.5 18.75 0.5 21.35 1.1 23.7 2.3" fill="#ffffff" fill-rule="evenodd" stroke="none"/>
      <path d="M25.65 4.2 L27.15 6.6 28.0 9.4 28.3 12.4 27.8 15.45 26.75 18.15 25.1 20.45 25.05 20.45 23.05 22.15 20.6 23.1 18.8 23.35 9.95 23.35 7.55 22.8 5.15 21.6 3.25 19.75 1.65 17.2 0.8 14.45 0.5 11.5 1.0 8.45 2.05 5.75 3.75 3.45 3.75 3.4 5.8 1.7 8.25 0.75 10.0 0.5 18.75 0.5 21.35 1.1 23.7 2.3 25.65 4.2" fill="#ffffff" fill-rule="evenodd" stroke="none"/>
      <path d="M9.05 6.05 L21.4 12.6 9.05 18.7 9.05 6.05" fill="#000000" fill-rule="evenodd" stroke="none"/>
    </g>
  </defs>
</svg>
