<?xml version="1.0" encoding="UTF-8" standalone="no"?>
<svg xmlns:xlink="http://www.w3.org/1999/xlink" height="64.0px" width="64.0px" xmlns="http://www.w3.org/2000/svg">
  <g transform="matrix(1.0, 0.0, 0.0, 1.0, 0.0, 0.0)">
    <use data-characterId="601" height="64.0" transform="matrix(1.0, 0.0, 0.0, 1.0, 0.0, 0.0)" width="64.0" xlink:href="#shape0"/>
  </g>
  <defs>
    <g id="shape0" transform="matrix(1.0, 0.0, 0.0, 1.0, 0.0, 0.0)">
      <path d="M62.35 21.75 L62.45 21.95 64.0 29.9 64.0 30.25 63.45 38.3 63.45 38.5 60.8 46.25 60.7 46.55 56.15 53.2 55.95 53.4 49.75 58.7 49.55 58.8 42.35 62.35 42.05 62.45 34.1 64.0 33.85 64.0 25.8 63.45 25.5 63.45 17.75 60.8 17.55 60.7 10.9 56.15 10.7 55.95 5.4 49.75 5.2 49.55 1.65 42.25 1.55 41.9 0.0 34.0 0.0 33.65 0.55 25.6 0.65 25.4 3.4 17.75 Q3.4 17.55 3.55 17.55 L7.95 10.8 8.15 10.6 14.35 5.3 14.55 5.1 Q18.2 3.35 21.85 1.55 L22.2 1.45 30.1 0.0 30.35 0.0 38.4 0.45 38.75 0.55 46.35 3.3 46.55 3.4 53.3 7.95 53.5 8.15 58.8 14.25 62.35 21.75" fill="#b90000" fill-rule="evenodd" stroke="none"/>
      <path d="M62.35 21.75 L62.45 21.95 64.0 29.9 64.0 30.25 63.45 38.3 63.45 38.5 60.8 46.25 60.7 46.55 56.15 53.2 55.95 53.4 49.75 58.7 49.55 58.8 42.35 62.35 42.05 62.45 34.1 64.0 33.85 64.0 25.8 63.45 25.5 63.45 17.75 60.8 17.55 60.7 10.9 56.15 10.7 55.95 5.4 49.75 5.2 49.55 1.65 42.25 1.55 41.9 0.0 34.0 0.0 33.65 0.55 25.6 0.65 25.4 3.4 17.75 Q3.4 17.55 3.55 17.55 L7.95 10.8 8.15 10.6 14.35 5.3 14.55 5.1 Q18.2 3.35 21.85 1.55 L22.2 1.45 30.1 0.0 30.35 0.0 38.4 0.45 38.75 0.55 46.35 3.3 46.55 3.4 53.3 7.95 53.5 8.15 58.8 14.25 62.35 21.75" fill="#ffffff" fill-opacity="0.2" fill-rule="evenodd" stroke="none"/>
      <path d="M57.05 15.45 L57.15 15.45 60.35 22.55 61.9 30.35 61.35 37.95 58.8 45.35 54.4 51.85 54.4 52.0 48.65 56.85 48.55 56.95 41.6 60.25 33.85 61.8 26.15 61.25 18.75 58.7 12.25 54.3 7.25 48.55 7.25 48.45 3.85 41.5 2.3 33.65 2.85 26.05 5.5 18.65 9.8 12.05 9.9 12.05 15.65 7.1 22.7 3.65 30.45 2.25 38.15 2.7 45.55 5.35 52.2 9.85 57.05 15.45" fill="#b90000" fill-rule="evenodd" stroke="none"/>
      <path d="M45.0 28.75 Q44.2 30.3 42.7 31.4 44.7 32.45 45.8 34.35 L45.8 34.4 Q47.0 36.65 47.0 39.6 47.0 44.25 43.9 47.3 42.35 48.85 40.25 49.55 L40.3 49.55 35.65 50.2 20.55 50.2 20.2 50.05 20.05 49.7 20.05 15.2 Q20.05 15.0 20.2 14.85 20.35 14.65 20.55 14.65 L35.5 14.65 Q38.0 14.65 39.9 15.35 L39.95 15.35 Q41.95 16.1 43.25 17.4 44.7 18.7 45.45 20.6 46.15 22.45 46.15 24.65 46.15 26.85 45.0 28.75 M25.75 20.15 L25.75 28.95 35.7 28.95 Q37.75 28.95 39.1 27.9 40.35 26.8 40.35 24.6 40.35 20.15 35.5 20.15 L25.75 20.15 M25.75 44.75 L35.9 44.75 Q38.4 44.75 39.9 43.4 41.3 42.05 41.3 39.65 41.3 34.45 35.7 34.45 L25.75 34.45 25.75 44.75" fill="#ffffff" fill-opacity="0.8" fill-rule="evenodd" stroke="none"/>
    </g>
  </defs>
</svg>
