<?xml version="1.0" encoding="UTF-8" standalone="no"?>
<svg
   ffdec:objectType="frame"
   height="30.76923"
   width="20"
   version="1.1"
   id="svg2"
   sodipodi:docname="cursor_arrow-min.svg"
   inkscape:version="1.3.2 (091e20e, 2023-11-25, custom)"
   xmlns:inkscape="http://www.inkscape.org/namespaces/inkscape"
   xmlns:sodipodi="http://sodipodi.sourceforge.net/DTD/sodipodi-0.dtd"
   xmlns:xlink="http://www.w3.org/1999/xlink"
   xmlns="http://www.w3.org/2000/svg"
   xmlns:svg="http://www.w3.org/2000/svg"
   xmlns:ffdec="https://www.free-decompiler.com/flash">
  <sodipodi:namedview
     id="namedview2"
     pagecolor="#505050"
     bordercolor="#ffffff"
     borderopacity="1"
     inkscape:showpageshadow="0"
     inkscape:pageopacity="0"
     inkscape:pagecheckerboard="1"
     inkscape:deskcolor="#505050"
     inkscape:zoom="10.4125"
     inkscape:cx="15.7503"
     inkscape:cy="18.583433"
     inkscape:window-width="1920"
     inkscape:window-height="991"
     inkscape:window-x="-9"
     inkscape:window-y="-9"
     inkscape:window-maximized="1"
     inkscape:current-layer="svg2" />
  <use
     ffdec:characterId="242"
     height="20"
     width="13"
     xlink:href="#a"
     id="use1"
     transform="scale(1.5384615)" />
  <defs
     id="defs2">
    <use
       ffdec:characterId="241"
       height="20"
       width="13"
       xlink:href="#b"
       id="a" />
    <g
       id="b"
       fill-rule="evenodd">
      <path
         d="M 6.65,12.65 6.5,12.9 6.55,13.2 8.35,17.7 6.3,18.4 4.5,13.85 4.3,13.6 4,13.5 3.7,13.6 0.5,16 V 1.2 L 11,11.7 6.9,12.5 6.65,12.65"
         fill="#ffffff"
         transform="translate(0.5,0.5)"
         id="path1" />
      <path
         d="m 0,-0.5 0.35,0.15 12,12 0.15,0.35 -0.1,0.3 -0.3,0.2 -4.4,0.9 1.8,4.45 v 0.25 l -0.1,0.25 -0.25,0.15 -3,1 L 5.8,19.45 5.55,19.2 3.8,14.8 0.3,17.4 -0.05,17.5 -0.35,17.35 -0.5,17 V 0 L -0.35,-0.35 0,-0.5 M 6.65,12.65 6.9,12.5 11,11.7 0.5,1.2 V 16 L 3.7,13.6 4,13.5 4.3,13.6 4.5,13.85 6.3,18.4 8.35,17.7 6.55,13.2 6.5,12.9 6.65,12.65"
         transform="translate(0.5,0.5)"
         id="path2" />
    </g>
  </defs>
</svg>
