<?xml version="1.0" encoding="UTF-8" standalone="no"?>
<svg xmlns:xlink="http://www.w3.org/1999/xlink" height="64.0px" width="64.0px" xmlns="http://www.w3.org/2000/svg">
  <g transform="matrix(1.0, 0.0, 0.0, 1.0, 0.0, 0.0)">
    <use height="64.0" transform="matrix(1.0, 0.0, 0.0, 1.0, 0.0, 0.0)" width="64.0" xlink:href="#shape0"/>
  </g>
  <defs>
    <g id="shape0" transform="matrix(1.0, 0.0, 0.0, 1.0, 0.0, 0.0)">
      <path d="M2.25 31.95 L10.75 38.7 10.75 25.2 2.25 31.95 M0.0 0.0 L64.0 0.0 64.0 64.0 0.0 64.0 0.0 0.0" fill="#ff00ff" fill-opacity="0.0" fill-rule="evenodd" stroke="none"/>
      <path d="M57.05 40.7 L53.05 40.7 53.05 16.25 57.05 16.25 57.05 40.7" fill="#ffffff" fill-rule="evenodd" stroke="none"/>
      <path d="M55.15 49.1 L48.4 40.7 61.9 40.7 55.15 49.1" fill="#ffffff" fill-rule="evenodd" stroke="none"/>
      <path d="M57.25 18.6 L57.25 43.05 53.25 43.05 53.25 18.6 57.25 18.6" fill="#ffffff" fill-rule="evenodd" stroke="none"/>
      <path d="M48.4 18.6 L55.15 10.2 61.9 18.6 48.4 18.6" fill="#ffffff" fill-rule="evenodd" stroke="none"/>
      <path d="M45.85 21.3 L45.8 26.4 3.65 26.4 3.55 21.3 3.35 9.3 Q7.05 5.6 12.55 3.3 17.6 1.2 22.6 0.85 L22.6 14.85 26.55 14.85 26.55 0.9 Q31.55 1.2 36.55 3.35 42.15 5.75 45.95 9.55 L45.85 21.3" fill="#ffffff" fill-rule="evenodd" stroke="none"/>
      <path d="M45.95 9.55 L45.6 41.65 Q45.6 44.75 43.9 49.7 42.9 52.1 41.1 54.55 38.35 58.25 33.95 60.35 29.55 62.5 24.75 62.5 19.95 62.5 15.55 60.35 11.15 58.25 8.35 54.55 6.55 52.1 5.55 49.7 3.9 44.95 3.9 41.65 L3.35 9.3 Q7.05 5.6 12.55 3.3 18.55 0.8 24.5 0.8 30.5 0.8 36.55 3.35 42.15 5.75 45.95 9.55" fill="#ffffff" fill-rule="evenodd" stroke="none"/>
      <path d="M42.65 26.0 L6.8 26.0 6.5 10.25 Q9.5 7.65 13.65 5.9 L13.85 5.85 Q18.25 3.95 22.6 3.65 L22.6 14.45 26.55 14.45 26.55 3.65 Q30.9 4.0 35.3 5.9 39.6 7.7 42.8 10.5 L42.65 26.0" fill="#cccccc" fill-rule="evenodd" stroke="none"/>
      <path d="M22.05 14.35 Q20.95 15.4 20.95 16.95 L20.95 25.8 Q20.95 27.4 22.05 28.3 23.1 29.4 24.6 29.4 26.1 29.4 27.1 28.3 28.25 27.4 28.25 25.8 L28.25 16.95 Q28.25 15.4 27.1 14.35 26.1 13.35 24.6 13.35 23.1 13.35 22.05 14.35 M29.0 12.35 Q30.85 14.25 30.85 16.75 L30.85 25.7 Q30.85 28.3 29.0 30.2 27.1 32.1 24.6 32.1 21.9 32.1 20.1 30.2 18.2 28.3 18.2 25.7 L18.2 16.75 Q18.2 14.25 20.1 12.35 21.9 10.45 24.6 10.45 27.1 10.45 29.0 12.35" fill="#ffffff" fill-rule="evenodd" stroke="none"/>
      <path d="M22.05 14.35 Q23.1 13.35 24.6 13.35 26.1 13.35 27.1 14.35 28.25 15.4 28.25 16.95 L28.25 25.8 Q28.25 27.4 27.1 28.3 26.1 29.4 24.6 29.4 23.1 29.4 22.05 28.3 20.95 27.4 20.95 25.8 L20.95 16.95 Q20.95 15.4 22.05 14.35" fill="#000000" fill-rule="evenodd" stroke="none"/>
    </g>
  </defs>
</svg>
