<?xml version="1.0" encoding="UTF-8" standalone="no"?>
<svg xmlns:xlink="http://www.w3.org/1999/xlink" height="24.5px" width="17.0px" xmlns="http://www.w3.org/2000/svg">
  <g transform="matrix(1.0, 0.0, 0.0, 1.0, 8.5, 12.25)">
    <use height="25.0" transform="matrix(0.059, 0.0, 0.0, 0.6799, -8.5, -8.5)" width="288.0" xlink:href="#sprite0"/>
    <use height="12.25" id="upMC" transform="matrix(1.0, 0.0, 0.0, 1.0, -7.0, -12.25)" width="14.0" xlink:href="#sprite1"/>
    <use height="12.25" id="downMC" transform="matrix(-1.0, 0.0, 0.0, -1.0, 7.05, 12.25)" width="14.0" xlink:href="#sprite1"/>
  </g>
  <defs>
    <g id="sprite0" transform="matrix(1.0, 0.0, 0.0, 1.0, 0.0, 0.0)">
      <use height="25.0" transform="matrix(72.0, 0.0, 0.0, 1.0, 0.0, 0.0)" width="4.0" xlink:href="#shape0"/>
    </g>
    <g id="shape0" transform="matrix(1.0, 0.0, 0.0, 1.0, 2.0, 12.5)">
      <path d="M-2.0 -12.5 L2.0 -12.5 2.0 12.5 -2.0 12.5 -2.0 -12.5" fill="#ffffff" fill-opacity="0.0" fill-rule="evenodd" stroke="none"/>
    </g>
    <g id="sprite1" transform="matrix(1.0, 0.0, 0.0, 1.0, 7.0, 7.45)">
      <use height="12.25" transform="matrix(1.0, 0.0, 0.0, 1.0, -7.0, -7.45)" width="14.0" xlink:href="#shape1"/>
    </g>
    <g id="shape1" transform="matrix(1.0, 0.0, 0.0, 1.0, 7.0, 7.45)">
      <path d="M-7.0 -7.45 L7.0 -7.45 7.0 4.8 -7.0 4.8 -7.0 -7.45" fill="#ffffff" fill-opacity="0.0" fill-rule="evenodd" stroke="none"/>
      <path d="M-4.25 3.75 L-5.85 2.15 0.0 -3.7 5.9 2.15 4.25 3.75 0.0 -0.5 -4.25 3.75" fill="#ffffff" fill-rule="evenodd" stroke="none"/>
    </g>
  </defs>
</svg>
