<?xml version="1.0" encoding="UTF-8" standalone="no"?>
<svg xmlns:xlink="http://www.w3.org/1999/xlink" height="20.0px" width="20.0px" xmlns="http://www.w3.org/2000/svg">
  <g transform="matrix(1.0, 0.0, 0.0, 1.0, 10.0, 9.55)">
    <path d="M0.85 -2.8 Q1.85 -2.35 1.7 -1.2 L-0.75 4.95 Q-1.0 5.85 0.5 4.95 2.05 4.05 1.95 4.5 -0.65 8.85 -2.75 7.85 -3.75 7.4 -3.6 6.3 L-2.35 2.95 -1.15 0.1 -2.4 0.15 Q-3.95 1.05 -3.85 0.6 -1.25 -3.8 0.85 -2.8 M2.85 -4.0 Q2.3 -3.5 1.6 -3.5 0.85 -3.5 0.35 -4.0 -0.2 -4.55 -0.2 -5.3 -0.2 -6.05 0.35 -6.55 0.85 -7.1 1.6 -7.1 2.3 -7.1 2.85 -6.55 3.4 -6.05 3.4 -5.3 3.4 -4.55 2.85 -4.0" fill="#000000" fill-rule="evenodd" stroke="none"/>
    <path d="M0.0 -9.55 Q4.15 -9.55 7.1 -6.6 10.0 -3.7 10.0 0.45 10.0 4.6 7.1 7.55 4.15 10.45 0.0 10.45 -4.15 10.45 -7.05 7.55 -10.0 4.6 -10.0 0.45 -10.0 -3.65 -7.05 -6.6 -4.1 -9.55 0.0 -9.55 M0.85 -2.8 Q-1.25 -3.8 -3.85 0.6 -3.95 1.05 -2.4 0.15 L-1.15 0.1 -2.35 2.95 -3.6 6.3 Q-3.75 7.4 -2.75 7.85 -0.65 8.85 1.95 4.5 2.05 4.05 0.5 4.95 -1.0 5.85 -0.75 4.95 L1.7 -1.2 Q1.85 -2.35 0.85 -2.8 M2.85 -4.0 Q3.4 -4.55 3.4 -5.3 3.4 -6.05 2.85 -6.55 2.3 -7.1 1.6 -7.1 0.85 -7.1 0.35 -6.55 -0.2 -6.05 -0.2 -5.3 -0.2 -4.55 0.35 -4.0 0.85 -3.5 1.6 -3.5 2.3 -3.5 2.85 -4.0" fill="#ffffff" fill-rule="evenodd" stroke="none"/>
  </g>
</svg>
