<?xml version="1.0" encoding="UTF-8" standalone="no"?>
<svg
   xmlns:dc="http://purl.org/dc/elements/1.1/"
   xmlns:cc="http://creativecommons.org/ns#"
   xmlns:rdf="http://www.w3.org/1999/02/22-rdf-syntax-ns#"
   xmlns:svg="http://www.w3.org/2000/svg"
   xmlns="http://www.w3.org/2000/svg"
   xmlns:sodipodi="http://sodipodi.sourceforge.net/DTD/sodipodi-0.dtd"
   xmlns:inkscape="http://www.inkscape.org/namespaces/inkscape"
   height="77.150002"
   width="77.150002"
   version="1.1"
   id="svg12"
   sodipodi:docname="info.svg"
   inkscape:version="0.92.4 (5da689c313, 2019-01-14)">
  <metadata
     id="metadata18">
    <rdf:RDF>
      <cc:Work
         rdf:about="">
        <dc:format>image/svg+xml</dc:format>
        <dc:type
           rdf:resource="http://purl.org/dc/dcmitype/StillImage" />
        <dc:title></dc:title>
      </cc:Work>
    </rdf:RDF>
  </metadata>
  <defs
     id="defs16" />
  <sodipodi:namedview
     pagecolor="#ffffff"
     bordercolor="#666666"
     borderopacity="1"
     objecttolerance="10"
     gridtolerance="10"
     guidetolerance="10"
     inkscape:pageopacity="0"
     inkscape:pageshadow="2"
     inkscape:window-width="1920"
     inkscape:window-height="1017"
     id="namedview14"
     showgrid="false"
     inkscape:pagecheckerboard="true"
     fit-margin-top="0"
     fit-margin-left="0"
     fit-margin-right="0"
     fit-margin-bottom="0"
     inkscape:zoom="2.1801386"
     inkscape:cx="38.575001"
     inkscape:cy="54.125"
     inkscape:window-x="-8"
     inkscape:window-y="-8"
     inkscape:window-maximized="1"
     inkscape:current-layer="g10" />
  <g
     transform="translate(5.5,5.5)"
     id="g10">
    <path
       d="m 56.1,10.05 q 9.55,9.6 9.55,23.05 0,13.45 -9.55,23 -9.55,9.55 -23.05,9.55 -13.45,0 -23,-9.55 -9.55,-9.55 -9.55,-23 0,-13.45 9.55,-23.05 9.55,-9.55 23,-9.55 13.5,0 23.05,9.55"
       id="path2"
       inkscape:connector-curvature="0"
       style="display:inline;fill:#000000;fill-rule:evenodd;stroke:none" />
    <path
       d="M 56.1,10.05 Q 46.55,0.5 33.05,0.5 q -13.45,0 -23,9.55 -9.55,9.6 -9.55,23.05 0,13.45 9.55,23 9.55,9.55 23,9.55 13.5,0 23.05,-9.55 9.55,-9.55 9.55,-23 0,-13.45 -9.55,-23.05 z"
       stroke-linejoin="miter-clip"
       stroke-miterlimit="10.0"
       id="path4"
       inkscape:connector-curvature="0"
       style="display:inline;fill:none;stroke:#000000;stroke-width:12;stroke-linecap:round;stroke-miterlimit:10" />
    <path
       d="m 56.1,10.05 q 9.55,9.6 9.55,23.05 0,13.45 -9.55,23 -9.55,9.55 -23.05,9.55 -13.45,0 -23,-9.55 -9.55,-9.55 -9.55,-23 0,-13.45 9.55,-23.05 9.55,-9.55 23,-9.55 13.5,0 23.05,9.55 m -10.35,1.8 q 0,-2.65 -1.7,-4.35 -1.7,-1.7 -4.4,-1.7 -2.95,0 -5.1,2.1 -2.15,2.1 -2.15,4.95 0,2.75 1.7,4.4 1.65,1.65 4.4,1.65 3.05,0 5.15,-2.05 2.1,-2.05 2.1,-5 m -3.5,34.3 q -0.45,-0.5 -1,-0.5 -0.45,0 -1.15,0.65 l -1.9,2 q -3.8,4.3 -5.05,4.3 -0.3,0 -0.4,-0.3 L 32.7,51.95 q 0,-1 1.15,-3.95 l 6.1,-16.4 q 2.1,-5.7 0.15,-8.55 -1.55,-2.2 -4.95,-2.2 -6.8,0 -12.65,5.65 l -0.3,0.3 q -4.5,4.4 -4.5,6 0,0.6 0.45,1.05 0.5,0.5 1.1,0.5 0.55,0 1.3,-0.7 l 1.9,-2.05 q 3.65,-4.35 5.25,-4.35 0.25,0 0.4,0.25 0.25,0.45 -0.05,1.3 L 22.3,43.2 q -3.4,8.25 -3.4,12.2 0,2.35 1.45,3.7 1.45,1.3 4.05,1.3 5.75,0 12.4,-5.55 5.95,-5 5.95,-7.5 0,-0.7 -0.5,-1.2"
       id="path6"
       inkscape:connector-curvature="0"
       style="display:inline;fill:#ffffff;fill-rule:evenodd;stroke:none" />
    <path
       d="m 42.25,46.15 q 0.5,0.5 0.5,1.2 0,2.5 -5.95,7.5 -6.65,5.55 -12.4,5.55 -2.6,0 -4.05,-1.3 -1.45,-1.35 -1.45,-3.7 0,-3.95 3.4,-12.2 l 5.75,-14.4 q 0.3,-0.85 0.05,-1.3 -0.15,-0.25 -0.4,-0.25 -1.6,0 -5.25,4.35 l -1.9,2.05 q -0.75,0.7 -1.3,0.7 -0.6,0 -1.1,-0.5 -0.45,-0.45 -0.45,-1.05 0,-1.6 4.5,-6 l 0.3,-0.3 q 5.85,-5.65 12.65,-5.65 3.4,0 4.95,2.2 1.95,2.85 -0.15,8.55 L 33.85,48 q -1.15,2.95 -1.15,3.95 l 0.05,0.35 q 0.1,0.3 0.4,0.3 1.25,0 5.05,-4.3 l 1.9,-2 q 0.7,-0.65 1.15,-0.65 0.55,0 1,0.5 m 3.5,-34.3 q 0,2.95 -2.1,5 -2.1,2.05 -5.15,2.05 -2.75,0 -4.4,-1.65 -1.7,-1.65 -1.7,-4.4 0,-2.85 2.15,-4.95 2.15,-2.1 5.1,-2.1 2.7,0 4.4,1.7 1.7,1.7 1.7,4.35"
       id="path8"
       inkscape:connector-curvature="0"
       style="display:inline;fill:#000000;fill-rule:evenodd;stroke:none" />
  </g>
</svg>
