<?xml version="1.0" encoding="UTF-8" standalone="no"?>
<svg
   xmlns:dc="http://purl.org/dc/elements/1.1/"
   xmlns:cc="http://creativecommons.org/ns#"
   xmlns:rdf="http://www.w3.org/1999/02/22-rdf-syntax-ns#"
   xmlns:svg="http://www.w3.org/2000/svg"
   xmlns="http://www.w3.org/2000/svg"
   xmlns:xlink="http://www.w3.org/1999/xlink"
   xmlns:sodipodi="http://sodipodi.sourceforge.net/DTD/sodipodi-0.dtd"
   xmlns:inkscape="http://www.inkscape.org/namespaces/inkscape"
   height="18.1px"
   width="18.05px"
   version="1.1"
   id="svg11"
   sodipodi:docname="1.svg"
   inkscape:version="0.92.4 (5da689c313, 2019-01-14)">
  <metadata
     id="metadata15">
    <rdf:RDF>
      <cc:Work
         rdf:about="">
        <dc:format>image/svg+xml</dc:format>
        <dc:type
           rdf:resource="http://purl.org/dc/dcmitype/StillImage" />
        <dc:title></dc:title>
      </cc:Work>
    </rdf:RDF>
  </metadata>
  <sodipodi:namedview
     pagecolor="#ffffff"
     bordercolor="#666666"
     borderopacity="1"
     objecttolerance="10"
     gridtolerance="10"
     guidetolerance="10"
     inkscape:pageopacity="0"
     inkscape:pageshadow="2"
     inkscape:window-width="1920"
     inkscape:window-height="1017"
     id="namedview13"
     showgrid="false"
     inkscape:pagecheckerboard="true"
     inkscape:zoom="36.878938"
     inkscape:cx="7.0545276"
     inkscape:cy="9.18616"
     inkscape:window-x="-8"
     inkscape:window-y="-8"
     inkscape:window-maximized="1"
     inkscape:current-layer="svg11" />
  <g
     transform="translate(9.1,9)"
     id="g4">
    <use
       height="18.1"
       transform="translate(-9.1,-9)"
       width="18.049999"
       xlink:href="#shape0"
       id="use2"
       x="0"
       y="0" />
  </g>
  <defs
     id="defs9">
    <g
       id="shape0"
       transform="matrix(1.0, 0.0, 0.0, 1.0, 9.1, 9.0)">
      <path
         d="M-2.05 -6.65 L-4.25 -6.65 -4.8 -4.0 -2.45 -4.0 Q-0.45 -4.0 -0.45 -5.5 -0.45 -6.65 -2.05 -6.65 M4.4 3.1 L4.0 0.3 2.35 3.1 -0.25 3.1 1.3 4.75 0.05 7.55 2.85 5.85 5.1 7.55 4.65 4.75 7.0 3.1 4.4 3.1 M2.45 -6.1 Q2.45 -4.8 1.85 -4.0 1.15 -3.15 -0.15 -3.0 L-0.15 -2.95 Q0.5 -2.8 0.75 -2.35 L1.0 -1.1 1.0 0.0 0.95 0.95 1.05 1.7 1.35 2.45 2.0 2.45 4.3 -1.5 4.95 2.5 8.95 2.5 5.35 5.0 5.95 9.0 2.8 6.6 -1.4 9.1 0.6 4.85 -1.7 2.5 -1.9 2.0 -1.95 1.5 -1.9 0.6 -1.85 -0.4 Q-1.85 -1.15 -2.2 -1.5 -2.55 -1.9 -3.35 -1.9 L-5.3 -1.9 -6.15 2.15 -9.1 2.15 -6.75 -9.0 -1.2 -9.0 Q0.55 -9.0 1.4 -8.45 2.45 -7.75 2.45 -6.1"
         fill="#ffffff"
         fill-rule="evenodd"
         stroke="none"
         id="path6" />
    </g>
  </defs>
</svg>
