<svg xmlns="http://www.w3.org/2000/svg" xmlns:xlink="http://www.w3.org/1999/xlink" xml:space="preserve" viewBox="0 0 1760 860"><defs><linearGradient id="a"><stop offset="0" stop-color="#fff"/><stop offset=".941"/></linearGradient><linearGradient xlink:href="#a" id="b" x1="75.263" x2="1232.09" y1="226.46" y2="226.46" gradientTransform="matrix(.112 0 0 .761 -110.542 -23.3)" gradientUnits="userSpaceOnUse"/><linearGradient xlink:href="#a" id="c" x1="75.263" x2="1232.09" y1="226.46" y2="226.46" gradientTransform="matrix(.112 0 0 .761 -110.542 -93.037)" gradientUnits="userSpaceOnUse"/><linearGradient xlink:href="#a" id="d" x1="75.263" x2="1232.09" y1="226.46" y2="226.46" gradientTransform="matrix(.112 0 0 .761 -110.542 -57.997)" gradientUnits="userSpaceOnUse"/><linearGradient xlink:href="#a" id="e" x1="75.263" x2="1232.09" y1="226.46" y2="226.46" gradientTransform="matrix(.112 0 0 .761 -110.542 -127.593)" gradientUnits="userSpaceOnUse"/><linearGradient xlink:href="#a" id="f" x1="75.263" x2="1232.09" y1="226.46" y2="226.46" gradientTransform="matrix(.112 0 0 .761 -110.542 -162.507)" gradientUnits="userSpaceOnUse"/><linearGradient xlink:href="#a" id="g" x1="75.263" x2="1232.09" y1="226.46" y2="226.46" gradientTransform="matrix(.112 0 0 .761 -110.542 -230.45)" gradientUnits="userSpaceOnUse"/><linearGradient xlink:href="#a" id="h" x1="75.263" x2="1232.09" y1="226.46" y2="226.46" gradientTransform="matrix(.112 0 0 .761 -110.542 -195.41)" gradientUnits="userSpaceOnUse"/><linearGradient xlink:href="#a" id="i" x1="75.263" x2="1232.09" y1="226.46" y2="226.46" gradientTransform="matrix(.112 0 0 .761 -110.542 -265.007)" gradientUnits="userSpaceOnUse"/><linearGradient xlink:href="#a" id="j" x1="75.263" x2="1232.09" y1="226.46" y2="226.46" gradientTransform="matrix(.112 0 0 .761 -110.542 -335.087)" gradientUnits="userSpaceOnUse"/><linearGradient xlink:href="#a" id="k" x1="75.263" x2="1232.09" y1="226.46" y2="226.46" gradientTransform="matrix(.112 0 0 .761 -110.542 -300.047)" gradientUnits="userSpaceOnUse"/><linearGradient xlink:href="#a" id="l" x1="75.263" x2="1232.09" y1="226.46" y2="226.46" gradientTransform="matrix(.112 0 0 .761 -78.472 -23.3)" gradientUnits="userSpaceOnUse"/><linearGradient xlink:href="#a" id="m" x1="75.263" x2="1232.09" y1="226.46" y2="226.46" gradientTransform="matrix(.112 0 0 .761 -78.472 -93.037)" gradientUnits="userSpaceOnUse"/><linearGradient xlink:href="#a" id="n" x1="75.263" x2="1232.09" y1="226.46" y2="226.46" gradientTransform="matrix(.112 0 0 .761 -78.472 -57.997)" gradientUnits="userSpaceOnUse"/><linearGradient xlink:href="#a" id="o" x1="75.263" x2="1232.09" y1="226.46" y2="226.46" gradientTransform="matrix(.112 0 0 .761 -78.472 -127.593)" gradientUnits="userSpaceOnUse"/><linearGradient xlink:href="#a" id="p" x1="75.263" x2="1232.09" y1="226.46" y2="226.46" gradientTransform="matrix(.112 0 0 .761 -78.472 -162.507)" gradientUnits="userSpaceOnUse"/><linearGradient xlink:href="#a" id="q" x1="75.263" x2="1232.09" y1="226.46" y2="226.46" gradientTransform="matrix(.112 0 0 .761 -78.472 -230.45)" gradientUnits="userSpaceOnUse"/><linearGradient xlink:href="#a" id="r" x1="75.263" x2="1232.09" y1="226.46" y2="226.46" gradientTransform="matrix(.112 0 0 .761 -78.472 -195.41)" gradientUnits="userSpaceOnUse"/><linearGradient xlink:href="#a" id="s" x1="75.263" x2="1232.09" y1="226.46" y2="226.46" gradientTransform="matrix(.112 0 0 .761 -78.472 -265.007)" gradientUnits="userSpaceOnUse"/><linearGradient xlink:href="#a" id="t" x1="75.263" x2="1232.09" y1="226.46" y2="226.46" gradientTransform="matrix(.112 0 0 .761 -78.472 -335.087)" gradientUnits="userSpaceOnUse"/><linearGradient xlink:href="#a" id="u" x1="75.263" x2="1232.09" y1="226.46" y2="226.46" gradientTransform="matrix(.112 0 0 .761 -78.472 -300.047)" gradientUnits="userSpaceOnUse"/><linearGradient xlink:href="#a" id="v" x1="75.263" x2="1232.09" y1="226.46" y2="226.46" gradientTransform="matrix(.112 0 0 .761 -47.08 -23.3)" gradientUnits="userSpaceOnUse"/><linearGradient xlink:href="#a" id="w" x1="75.263" x2="1232.09" y1="226.46" y2="226.46" gradientTransform="matrix(.112 0 0 .761 -47.08 -93.037)" gradientUnits="userSpaceOnUse"/><linearGradient xlink:href="#a" id="x" x1="75.263" x2="1232.09" y1="226.46" y2="226.46" gradientTransform="matrix(.112 0 0 .761 -47.08 -57.997)" gradientUnits="userSpaceOnUse"/><linearGradient xlink:href="#a" id="y" x1="75.263" x2="1232.09" y1="226.46" y2="226.46" gradientTransform="matrix(.112 0 0 .761 -47.08 -127.593)" gradientUnits="userSpaceOnUse"/><linearGradient xlink:href="#a" id="z" x1="75.263" x2="1232.09" y1="226.46" y2="226.46" gradientTransform="matrix(.112 0 0 .761 -47.08 -162.507)" gradientUnits="userSpaceOnUse"/><linearGradient xlink:href="#a" id="A" x1="75.263" x2="1232.09" y1="226.46" y2="226.46" gradientTransform="matrix(.112 0 0 .761 -47.08 -230.45)" gradientUnits="userSpaceOnUse"/><linearGradient xlink:href="#a" id="B" x1="75.263" x2="1232.09" y1="226.46" y2="226.46" gradientTransform="matrix(.112 0 0 .761 -47.08 -195.41)" gradientUnits="userSpaceOnUse"/><linearGradient xlink:href="#a" id="C" x1="75.263" x2="1232.09" y1="226.46" y2="226.46" gradientTransform="matrix(.112 0 0 .761 -47.08 -265.007)" gradientUnits="userSpaceOnUse"/><linearGradient xlink:href="#a" id="D" x1="75.263" x2="1232.09" y1="226.46" y2="226.46" gradientTransform="matrix(.112 0 0 .761 -47.08 -335.087)" gradientUnits="userSpaceOnUse"/><linearGradient xlink:href="#a" id="E" x1="75.263" x2="1232.09" y1="226.46" y2="226.46" gradientTransform="matrix(.112 0 0 .761 -47.08 -300.047)" gradientUnits="userSpaceOnUse"/><linearGradient xlink:href="#a" id="F" x1="75.263" x2="1232.09" y1="226.46" y2="226.46" gradientTransform="matrix(.112 0 0 .761 -15.01 -23.3)" gradientUnits="userSpaceOnUse"/><linearGradient xlink:href="#a" id="G" x1="75.263" x2="1232.09" y1="226.46" y2="226.46" gradientTransform="matrix(.112 0 0 .761 -15.01 -93.037)" gradientUnits="userSpaceOnUse"/><linearGradient xlink:href="#a" id="H" x1="75.263" x2="1232.09" y1="226.46" y2="226.46" gradientTransform="matrix(.112 0 0 .761 -15.01 -57.997)" gradientUnits="userSpaceOnUse"/><linearGradient xlink:href="#a" id="I" x1="75.263" x2="1232.09" y1="226.46" y2="226.46" gradientTransform="matrix(.112 0 0 .761 -15.01 -127.593)" gradientUnits="userSpaceOnUse"/><linearGradient xlink:href="#a" id="J" x1="75.263" x2="1232.09" y1="226.46" y2="226.46" gradientTransform="matrix(.112 0 0 .761 -15.01 -162.507)" gradientUnits="userSpaceOnUse"/><linearGradient xlink:href="#a" id="K" x1="75.263" x2="1232.09" y1="226.46" y2="226.46" gradientTransform="matrix(.112 0 0 .761 -15.01 -230.45)" gradientUnits="userSpaceOnUse"/><linearGradient xlink:href="#a" id="L" x1="75.263" x2="1232.09" y1="226.46" y2="226.46" gradientTransform="matrix(.112 0 0 .761 -15.01 -195.41)" gradientUnits="userSpaceOnUse"/><linearGradient xlink:href="#a" id="M" x1="75.263" x2="1232.09" y1="226.46" y2="226.46" gradientTransform="matrix(.112 0 0 .761 -15.01 -265.007)" gradientUnits="userSpaceOnUse"/><linearGradient xlink:href="#a" id="N" x1="75.263" x2="1232.09" y1="226.46" y2="226.46" gradientTransform="matrix(.112 0 0 .761 -15.01 -335.087)" gradientUnits="userSpaceOnUse"/><linearGradient xlink:href="#a" id="O" x1="75.263" x2="1232.09" y1="226.46" y2="226.46" gradientTransform="matrix(.112 0 0 .761 -15.01 -300.047)" gradientUnits="userSpaceOnUse"/><mask id="aD" maskUnits="userSpaceOnUse"><path fill="url(#b)" fill-rule="evenodd" stroke-width=".292" d="M-102.114-22.621H27.441v343.309h-129.555z" style="mix-blend-mode:multiply" transform="rotate(90)"/></mask><mask id="aC" maskUnits="userSpaceOnUse"><path fill="url(#c)" fill-rule="evenodd" stroke-width=".292" d="M-102.114-92.357H27.441v343.309h-129.555z" style="mix-blend-mode:multiply" transform="rotate(90)"/></mask><mask id="aB" maskUnits="userSpaceOnUse"><path fill="url(#d)" fill-rule="evenodd" stroke-width=".292" d="M-102.114-57.317H27.441v343.309h-129.555z" style="mix-blend-mode:multiply" transform="rotate(90)"/></mask><mask id="aA" maskUnits="userSpaceOnUse"><path fill="url(#e)" fill-rule="evenodd" stroke-width=".292" d="M-102.114-126.914H27.441v343.309h-129.555z" style="mix-blend-mode:multiply" transform="rotate(90)"/></mask><mask id="az" maskUnits="userSpaceOnUse"><path fill="url(#f)" fill-rule="evenodd" stroke-width=".292" d="M-102.114-161.827H27.441v343.309h-129.555z" style="mix-blend-mode:multiply" transform="rotate(90)"/></mask><mask id="ay" maskUnits="userSpaceOnUse"><path fill="url(#g)" fill-rule="evenodd" stroke-width=".292" d="M-102.114-229.771H27.441v343.309h-129.555z" style="mix-blend-mode:multiply" transform="rotate(90)"/></mask><mask id="ax" maskUnits="userSpaceOnUse"><path fill="url(#h)" fill-rule="evenodd" stroke-width=".292" d="M-102.114-194.731H27.441v343.309h-129.555z" style="mix-blend-mode:multiply" transform="rotate(90)"/></mask><mask id="aw" maskUnits="userSpaceOnUse"><path fill="url(#i)" fill-rule="evenodd" stroke-width=".292" d="M-102.114-264.327H27.441V78.982h-129.555z" style="mix-blend-mode:multiply" transform="rotate(90)"/></mask><mask id="av" maskUnits="userSpaceOnUse"><path fill="url(#j)" fill-rule="evenodd" stroke-width=".292" d="M-102.114-334.407H27.441V8.902h-129.555z" style="mix-blend-mode:multiply" transform="rotate(90)"/></mask><mask id="au" maskUnits="userSpaceOnUse"><path fill="url(#k)" fill-rule="evenodd" stroke-width=".292" d="M-102.114-299.367H27.441V43.942h-129.555z" style="mix-blend-mode:multiply" transform="rotate(90)"/></mask><mask id="at" maskUnits="userSpaceOnUse"><path fill="url(#l)" fill-rule="evenodd" stroke-width=".292" d="M-70.043-22.621H59.512v343.309H-70.043z" style="mix-blend-mode:multiply" transform="rotate(90)"/></mask><mask id="as" maskUnits="userSpaceOnUse"><path fill="url(#m)" fill-rule="evenodd" stroke-width=".292" d="M-70.043-92.357H59.512v343.309H-70.043z" style="mix-blend-mode:multiply" transform="rotate(90)"/></mask><mask id="ar" maskUnits="userSpaceOnUse"><path fill="url(#n)" fill-rule="evenodd" stroke-width=".292" d="M-70.043-57.317H59.512v343.309H-70.043z" style="mix-blend-mode:multiply" transform="rotate(90)"/></mask><mask id="aq" maskUnits="userSpaceOnUse"><path fill="url(#o)" fill-rule="evenodd" stroke-width=".292" d="M-70.043-126.914H59.512v343.309H-70.043z" style="mix-blend-mode:multiply" transform="rotate(90)"/></mask><mask id="ap" maskUnits="userSpaceOnUse"><path fill="url(#p)" fill-rule="evenodd" stroke-width=".292" d="M-70.043-161.827H59.512v343.309H-70.043z" style="mix-blend-mode:multiply" transform="rotate(90)"/></mask><mask id="ao" maskUnits="userSpaceOnUse"><path fill="url(#q)" fill-rule="evenodd" stroke-width=".292" d="M-70.043-229.771H59.512v343.309H-70.043z" style="mix-blend-mode:multiply" transform="rotate(90)"/></mask><mask id="an" maskUnits="userSpaceOnUse"><path fill="url(#r)" fill-rule="evenodd" stroke-width=".292" d="M-70.043-194.731H59.512v343.309H-70.043z" style="mix-blend-mode:multiply" transform="rotate(90)"/></mask><mask id="am" maskUnits="userSpaceOnUse"><path fill="url(#s)" fill-rule="evenodd" stroke-width=".292" d="M-70.043-264.327H59.512V78.982H-70.043z" style="mix-blend-mode:multiply" transform="rotate(90)"/></mask><mask id="al" maskUnits="userSpaceOnUse"><path fill="url(#t)" fill-rule="evenodd" stroke-width=".292" d="M-70.043-334.407H59.512V8.902H-70.043z" style="mix-blend-mode:multiply" transform="rotate(90)"/></mask><mask id="ak" maskUnits="userSpaceOnUse"><path fill="url(#u)" fill-rule="evenodd" stroke-width=".292" d="M-70.043-299.367H59.512V43.942H-70.043z" style="mix-blend-mode:multiply" transform="rotate(90)"/></mask><mask id="aj" maskUnits="userSpaceOnUse"><path fill="url(#v)" fill-rule="evenodd" stroke-width=".292" d="M-38.651-22.621H90.904v343.309H-38.651z" style="mix-blend-mode:multiply" transform="rotate(90)"/></mask><mask id="ai" maskUnits="userSpaceOnUse"><path fill="url(#w)" fill-rule="evenodd" stroke-width=".292" d="M-38.651-92.357H90.904v343.309H-38.651z" style="mix-blend-mode:multiply" transform="rotate(90)"/></mask><mask id="ah" maskUnits="userSpaceOnUse"><path fill="url(#x)" fill-rule="evenodd" stroke-width=".292" d="M-38.651-57.317H90.904v343.309H-38.651z" style="mix-blend-mode:multiply" transform="rotate(90)"/></mask><mask id="ag" maskUnits="userSpaceOnUse"><path fill="url(#y)" fill-rule="evenodd" stroke-width=".292" d="M-38.651-126.914H90.904v343.309H-38.651z" style="mix-blend-mode:multiply" transform="rotate(90)"/></mask><mask id="af" maskUnits="userSpaceOnUse"><path fill="url(#z)" fill-rule="evenodd" stroke-width=".292" d="M-38.651-161.827H90.904v343.309H-38.651z" style="mix-blend-mode:multiply" transform="rotate(90)"/></mask><mask id="ae" maskUnits="userSpaceOnUse"><path fill="url(#A)" fill-rule="evenodd" stroke-width=".292" d="M-38.651-229.771H90.904v343.309H-38.651z" style="mix-blend-mode:multiply" transform="rotate(90)"/></mask><mask id="ad" maskUnits="userSpaceOnUse"><path fill="url(#B)" fill-rule="evenodd" stroke-width=".292" d="M-38.651-194.731H90.904v343.309H-38.651z" style="mix-blend-mode:multiply" transform="rotate(90)"/></mask><mask id="ac" maskUnits="userSpaceOnUse"><path fill="url(#C)" fill-rule="evenodd" stroke-width=".292" d="M-38.651-264.327H90.904V78.982H-38.651z" style="mix-blend-mode:multiply" transform="rotate(90)"/></mask><mask id="ab" maskUnits="userSpaceOnUse"><path fill="url(#D)" fill-rule="evenodd" stroke-width=".292" d="M-38.651-334.407H90.904V8.902H-38.651z" style="mix-blend-mode:multiply" transform="rotate(90)"/></mask><mask id="aa" maskUnits="userSpaceOnUse"><path fill="url(#E)" fill-rule="evenodd" stroke-width=".292" d="M-38.651-299.367H90.904V43.942H-38.651z" style="mix-blend-mode:multiply" transform="rotate(90)"/></mask><mask id="Z" maskUnits="userSpaceOnUse"><path fill="url(#F)" fill-rule="evenodd" stroke-width=".292" d="M-6.58-22.621h129.555v343.309H-6.58z" style="mix-blend-mode:multiply" transform="rotate(90)"/></mask><mask id="Y" maskUnits="userSpaceOnUse"><path fill="url(#G)" fill-rule="evenodd" stroke-width=".292" d="M-6.58-92.357h129.555v343.309H-6.58z" style="mix-blend-mode:multiply" transform="rotate(90)"/></mask><mask id="X" maskUnits="userSpaceOnUse"><path fill="url(#H)" fill-rule="evenodd" stroke-width=".292" d="M-6.58-57.317h129.555v343.309H-6.58z" style="mix-blend-mode:multiply" transform="rotate(90)"/></mask><mask id="W" maskUnits="userSpaceOnUse"><path fill="url(#I)" fill-rule="evenodd" stroke-width=".292" d="M-6.58-126.914h129.555v343.309H-6.58z" style="mix-blend-mode:multiply" transform="rotate(90)"/></mask><mask id="V" maskUnits="userSpaceOnUse"><path fill="url(#J)" fill-rule="evenodd" stroke-width=".292" d="M-6.58-161.827h129.555v343.309H-6.58z" style="mix-blend-mode:multiply" transform="rotate(90)"/></mask><mask id="U" maskUnits="userSpaceOnUse"><path fill="url(#K)" fill-rule="evenodd" stroke-width=".292" d="M-6.58-229.771h129.555v343.309H-6.58z" style="mix-blend-mode:multiply" transform="rotate(90)"/></mask><mask id="T" maskUnits="userSpaceOnUse"><path fill="url(#L)" fill-rule="evenodd" stroke-width=".292" d="M-6.58-194.731h129.555v343.309H-6.58z" style="mix-blend-mode:multiply" transform="rotate(90)"/></mask><mask id="S" maskUnits="userSpaceOnUse"><path fill="url(#M)" fill-rule="evenodd" stroke-width=".292" d="M-6.58-264.327h129.555V78.982H-6.58z" style="mix-blend-mode:multiply" transform="rotate(90)"/></mask><mask id="R" maskUnits="userSpaceOnUse"><path fill="url(#N)" fill-rule="evenodd" stroke-width=".292" d="M-6.58-334.407h129.555V8.902H-6.58z" style="mix-blend-mode:multiply" transform="rotate(90)"/></mask><mask id="Q" maskUnits="userSpaceOnUse"><path fill="url(#O)" fill-rule="evenodd" stroke-width=".292" d="M-6.58-299.367h129.555V43.942H-6.58z" style="mix-blend-mode:multiply" transform="rotate(90)"/></mask><path id="P" fill="#fff" fill-rule="evenodd" d="M-2.05-6.65h-2.2L-4.8-4h2.35q2 0 2-1.5 0-1.15-1.6-1.15M4.4 3.1 4 .3 2.35 3.1h-2.6L1.3 4.75.05 7.55l2.8-1.7 2.25 1.7-.45-2.8L7 3.1H4.4M2.45-6.1q0 1.3-.6 2.1-.7.85-2 1v.05q.65.15.9.6L1-1.1V0L.95.95l.1.75.3.75H2L4.3-1.5l.65 4h4L5.35 5l.6 4L2.8 6.6l-4.2 2.5 2-4.25-2.3-2.35-.2-.5-.05-.5.05-.9.05-1q0-.75-.35-1.1-.35-.4-1.15-.4H-5.3l-.85 4.05H-9.1L-6.75-9h5.55q1.75 0 2.6.55 1.05.7 1.05 2.35" transform="translate(9.1 9)"/></defs><g transform="translate(-75.263 -6.55)"><use xlink:href="#P" width="18.05" height="18.1" mask="url(#Q)" opacity=".15" transform="matrix(3.36758 0 0 3.36758 223.24 28.71)"/><use xlink:href="#P" width="18.05" height="18.1" mask="url(#R)" opacity=".15" transform="matrix(3.36758 0 0 3.36758 105.24 28.71)"/><use xlink:href="#P" width="18.05" height="18.1" mask="url(#S)" opacity=".15" transform="matrix(3.36758 0 0 3.36758 341.24 28.71)"/><use xlink:href="#P" width="18.05" height="18.1" mask="url(#T)" opacity=".15" transform="matrix(3.36758 0 0 3.36758 575.61 28.71)"/><use xlink:href="#P" width="18.05" height="18.1" mask="url(#U)" opacity=".15" transform="matrix(3.36758 0 0 3.36758 457.61 28.71)"/><use xlink:href="#P" width="18.05" height="18.1" mask="url(#V)" opacity=".15" transform="matrix(3.36758 0 0 3.36758 686.419 28.71)"/><use xlink:href="#P" width="18.05" height="18.1" mask="url(#W)" opacity=".15" transform="matrix(3.36758 0 0 3.36758 803.991 28.71)"/><use xlink:href="#P" width="18.05" height="18.1" mask="url(#X)" opacity=".15" transform="matrix(3.36758 0 0 3.36758 1038.362 28.71)"/><use xlink:href="#P" width="18.05" height="18.1" mask="url(#Y)" opacity=".15" transform="matrix(3.36758 0 0 3.36758 920.362 28.71)"/><use xlink:href="#P" width="18.05" height="18.1" mask="url(#Z)" opacity=".15" transform="matrix(3.36758 0 0 3.36758 1155.206 28.71)"/><use xlink:href="#P" width="18.05" height="18.1" mask="url(#aa)" opacity=".15" transform="matrix(3.36758 0 0 3.36758 223.24 136.71)"/><use xlink:href="#P" width="18.05" height="18.1" mask="url(#ab)" opacity=".15" transform="matrix(3.36758 0 0 3.36758 105.24 136.71)"/><use xlink:href="#P" width="18.05" height="18.1" mask="url(#ac)" opacity=".15" transform="matrix(3.36758 0 0 3.36758 341.24 136.71)"/><use xlink:href="#P" width="18.05" height="18.1" mask="url(#ad)" opacity=".15" transform="matrix(3.36758 0 0 3.36758 575.61 136.71)"/><use xlink:href="#P" width="18.05" height="18.1" mask="url(#ae)" opacity=".15" transform="matrix(3.36758 0 0 3.36758 457.61 136.71)"/><use xlink:href="#P" width="18.05" height="18.1" mask="url(#af)" opacity=".15" transform="matrix(3.36758 0 0 3.36758 686.419 136.71)"/><use xlink:href="#P" width="18.05" height="18.1" mask="url(#ag)" opacity=".15" transform="matrix(3.36758 0 0 3.36758 803.991 136.71)"/><use xlink:href="#P" width="18.05" height="18.1" mask="url(#ah)" opacity=".15" transform="matrix(3.36758 0 0 3.36758 1038.362 136.71)"/><use xlink:href="#P" width="18.05" height="18.1" mask="url(#ai)" opacity=".15" transform="matrix(3.36758 0 0 3.36758 920.362 136.71)"/><use xlink:href="#P" width="18.05" height="18.1" mask="url(#aj)" opacity=".15" transform="matrix(3.36758 0 0 3.36758 1155.206 136.71)"/><use xlink:href="#P" width="18.05" height="18.1" mask="url(#ak)" opacity=".15" transform="matrix(3.36758 0 0 3.36758 223.24 242.426)"/><use xlink:href="#P" width="18.05" height="18.1" mask="url(#al)" opacity=".15" transform="matrix(3.36758 0 0 3.36758 105.24 242.426)"/><use xlink:href="#P" width="18.05" height="18.1" mask="url(#am)" opacity=".15" transform="matrix(3.36758 0 0 3.36758 341.24 242.426)"/><use xlink:href="#P" width="18.05" height="18.1" mask="url(#an)" opacity=".15" transform="matrix(3.36758 0 0 3.36758 575.61 242.426)"/><use xlink:href="#P" width="18.05" height="18.1" mask="url(#ao)" opacity=".15" transform="matrix(3.36758 0 0 3.36758 457.61 242.426)"/><use xlink:href="#P" width="18.05" height="18.1" mask="url(#ap)" opacity=".15" transform="matrix(3.36758 0 0 3.36758 686.419 242.426)"/><use xlink:href="#P" width="18.05" height="18.1" mask="url(#aq)" opacity=".15" transform="matrix(3.36758 0 0 3.36758 803.991 242.426)"/><use xlink:href="#P" width="18.05" height="18.1" mask="url(#ar)" opacity=".15" transform="matrix(3.36758 0 0 3.36758 1038.362 242.426)"/><use xlink:href="#P" width="18.05" height="18.1" mask="url(#as)" opacity=".15" transform="matrix(3.36758 0 0 3.36758 920.362 242.426)"/><use xlink:href="#P" width="18.05" height="18.1" mask="url(#at)" opacity=".15" transform="matrix(3.36758 0 0 3.36758 1155.206 242.426)"/><use xlink:href="#P" width="18.05" height="18.1" mask="url(#au)" opacity=".15" transform="matrix(3.36758 0 0 3.36758 223.24 350.426)"/><use xlink:href="#P" width="18.05" height="18.1" mask="url(#av)" opacity=".15" transform="matrix(3.36758 0 0 3.36758 105.24 350.426)"/><use xlink:href="#P" width="18.05" height="18.1" mask="url(#aw)" opacity=".15" transform="matrix(3.36758 0 0 3.36758 341.24 350.426)"/><use xlink:href="#P" width="18.05" height="18.1" mask="url(#ax)" opacity=".15" transform="matrix(3.36758 0 0 3.36758 575.61 350.426)"/><use xlink:href="#P" width="18.05" height="18.1" mask="url(#ay)" opacity=".15" transform="matrix(3.36758 0 0 3.36758 457.61 350.426)"/><use xlink:href="#P" width="18.05" height="18.1" mask="url(#az)" opacity=".15" transform="matrix(3.36758 0 0 3.36758 686.419 350.426)"/><use xlink:href="#P" width="18.05" height="18.1" mask="url(#aA)" opacity=".15" transform="matrix(3.36758 0 0 3.36758 803.991 350.426)"/><use xlink:href="#P" width="18.05" height="18.1" mask="url(#aB)" opacity=".15" transform="matrix(3.36758 0 0 3.36758 1038.362 350.426)"/><use xlink:href="#P" width="18.05" height="18.1" mask="url(#aC)" opacity=".15" transform="matrix(3.36758 0 0 3.36758 920.362 350.426)"/><use xlink:href="#P" width="18.05" height="18.1" fill="red" mask="url(#aD)" opacity=".15" transform="matrix(3.36758 0 0 3.36758 1155.206 350.426)"/><use xlink:href="#P" width="18.05" height="18.1" mask="url(#V)" opacity=".15" transform="matrix(3.36758 0 0 3.36758 1266.984 28.71)"/><use xlink:href="#P" width="18.05" height="18.1" mask="url(#W)" opacity=".15" transform="matrix(3.36758 0 0 3.36758 1384.556 28.71)"/><use xlink:href="#P" width="18.05" height="18.1" mask="url(#X)" opacity=".15" transform="matrix(3.36758 0 0 3.36758 1618.927 28.71)"/><use xlink:href="#P" width="18.05" height="18.1" mask="url(#Y)" opacity=".15" transform="matrix(3.36758 0 0 3.36758 1500.927 28.71)"/><use xlink:href="#P" width="18.05" height="18.1" mask="url(#Z)" opacity=".15" transform="matrix(3.36758 0 0 3.36758 1735.77 28.71)"/><use xlink:href="#P" width="18.05" height="18.1" mask="url(#af)" opacity=".15" transform="matrix(3.36758 0 0 3.36758 1266.984 136.71)"/><use xlink:href="#P" width="18.05" height="18.1" mask="url(#ag)" opacity=".15" transform="matrix(3.36758 0 0 3.36758 1384.556 136.71)"/><use xlink:href="#P" width="18.05" height="18.1" mask="url(#ah)" opacity=".15" transform="matrix(3.36758 0 0 3.36758 1618.927 136.71)"/><use xlink:href="#P" width="18.05" height="18.1" mask="url(#ai)" opacity=".15" transform="matrix(3.36758 0 0 3.36758 1500.927 136.71)"/><use xlink:href="#P" width="18.05" height="18.1" mask="url(#aj)" opacity=".15" transform="matrix(3.36758 0 0 3.36758 1735.77 136.71)"/><use xlink:href="#P" width="18.05" height="18.1" mask="url(#ap)" opacity=".15" transform="matrix(3.36758 0 0 3.36758 1266.984 242.426)"/><use xlink:href="#P" width="18.05" height="18.1" mask="url(#aq)" opacity=".15" transform="matrix(3.36758 0 0 3.36758 1384.556 242.426)"/><use xlink:href="#P" width="18.05" height="18.1" mask="url(#ar)" opacity=".15" transform="matrix(3.36758 0 0 3.36758 1618.927 242.426)"/><use xlink:href="#P" width="18.05" height="18.1" mask="url(#as)" opacity=".15" transform="matrix(3.36758 0 0 3.36758 1500.927 242.426)"/><use xlink:href="#P" width="18.05" height="18.1" mask="url(#at)" opacity=".15" transform="matrix(3.36758 0 0 3.36758 1735.77 242.426)"/><use xlink:href="#P" width="18.05" height="18.1" mask="url(#az)" opacity=".15" transform="matrix(3.36758 0 0 3.36758 1266.984 350.426)"/><use xlink:href="#P" width="18.05" height="18.1" mask="url(#aA)" opacity=".15" transform="matrix(3.36758 0 0 3.36758 1384.556 350.426)"/><use xlink:href="#P" width="18.05" height="18.1" mask="url(#aB)" opacity=".15" transform="matrix(3.36758 0 0 3.36758 1618.927 350.426)"/><use xlink:href="#P" width="18.05" height="18.1" mask="url(#aC)" opacity=".15" transform="matrix(3.36758 0 0 3.36758 1500.927 350.426)"/><use xlink:href="#P" width="18.05" height="18.1" fill="red" mask="url(#aD)" opacity=".15" transform="matrix(3.36758 0 0 3.36758 1735.77 350.426)"/></g></svg>